%TF.GenerationSoftware,KiCad,Pcbnew,(7.0.0)*%
%TF.CreationDate,2023-05-02T23:46:26+03:00*%
%TF.ProjectId,24_channel_esp32_energy_meter,32345f63-6861-46e6-9e65-6c5f65737033,rev?*%
%TF.SameCoordinates,PX5ff2fd0PYa4fc540*%
%TF.FileFunction,Soldermask,Top*%
%TF.FilePolarity,Negative*%
%FSLAX46Y46*%
G04 Gerber Fmt 4.6, Leading zero omitted, Abs format (unit mm)*
G04 Created by KiCad (PCBNEW (7.0.0)) date 2023-05-02 23:46:26*
%MOMM*%
%LPD*%
G01*
G04 APERTURE LIST*
G04 Aperture macros list*
%AMRoundRect*
0 Rectangle with rounded corners*
0 $1 Rounding radius*
0 $2 $3 $4 $5 $6 $7 $8 $9 X,Y pos of 4 corners*
0 Add a 4 corners polygon primitive as box body*
4,1,4,$2,$3,$4,$5,$6,$7,$8,$9,$2,$3,0*
0 Add four circle primitives for the rounded corners*
1,1,$1+$1,$2,$3*
1,1,$1+$1,$4,$5*
1,1,$1+$1,$6,$7*
1,1,$1+$1,$8,$9*
0 Add four rect primitives between the rounded corners*
20,1,$1+$1,$2,$3,$4,$5,0*
20,1,$1+$1,$4,$5,$6,$7,0*
20,1,$1+$1,$6,$7,$8,$9,0*
20,1,$1+$1,$8,$9,$2,$3,0*%
%AMFreePoly0*
4,1,19,0.500000,-0.750000,0.000000,-0.750000,0.000000,-0.744911,-0.071157,-0.744911,-0.207708,-0.704816,-0.327430,-0.627875,-0.420627,-0.520320,-0.479746,-0.390866,-0.500000,-0.250000,-0.500000,0.250000,-0.479746,0.390866,-0.420627,0.520320,-0.327430,0.627875,-0.207708,0.704816,-0.071157,0.744911,0.000000,0.744911,0.000000,0.750000,0.500000,0.750000,0.500000,-0.750000,0.500000,-0.750000,
$1*%
%AMFreePoly1*
4,1,19,0.000000,0.744911,0.071157,0.744911,0.207708,0.704816,0.327430,0.627875,0.420627,0.520320,0.479746,0.390866,0.500000,0.250000,0.500000,-0.250000,0.479746,-0.390866,0.420627,-0.520320,0.327430,-0.627875,0.207708,-0.704816,0.071157,-0.744911,0.000000,-0.744911,0.000000,-0.750000,-0.500000,-0.750000,-0.500000,0.750000,0.000000,0.750000,0.000000,0.744911,0.000000,0.744911,
$1*%
G04 Aperture macros list end*
%ADD10C,3.000000*%
%ADD11R,1.700000X1.700000*%
%ADD12O,1.700000X1.700000*%
%ADD13RoundRect,0.225000X0.250000X-0.225000X0.250000X0.225000X-0.250000X0.225000X-0.250000X-0.225000X0*%
%ADD14RoundRect,0.225000X0.225000X0.250000X-0.225000X0.250000X-0.225000X-0.250000X0.225000X-0.250000X0*%
%ADD15RoundRect,0.200000X-0.275000X0.200000X-0.275000X-0.200000X0.275000X-0.200000X0.275000X0.200000X0*%
%ADD16RoundRect,0.200000X0.200000X0.275000X-0.200000X0.275000X-0.200000X-0.275000X0.200000X-0.275000X0*%
%ADD17RoundRect,0.250000X-0.250000X-0.475000X0.250000X-0.475000X0.250000X0.475000X-0.250000X0.475000X0*%
%ADD18RoundRect,0.200000X-0.200000X-0.275000X0.200000X-0.275000X0.200000X0.275000X-0.200000X0.275000X0*%
%ADD19RoundRect,0.250000X-0.475000X0.250000X-0.475000X-0.250000X0.475000X-0.250000X0.475000X0.250000X0*%
%ADD20RoundRect,0.225000X-0.250000X0.225000X-0.250000X-0.225000X0.250000X-0.225000X0.250000X0.225000X0*%
%ADD21RoundRect,0.200000X0.275000X-0.200000X0.275000X0.200000X-0.275000X0.200000X-0.275000X-0.200000X0*%
%ADD22RoundRect,0.225000X-0.225000X-0.250000X0.225000X-0.250000X0.225000X0.250000X-0.225000X0.250000X0*%
%ADD23R,1.200000X1.400000*%
%ADD24C,0.800000*%
%ADD25C,6.400000*%
%ADD26RoundRect,0.250000X1.425000X-0.362500X1.425000X0.362500X-1.425000X0.362500X-1.425000X-0.362500X0*%
%ADD27RoundRect,0.250000X-1.425000X0.362500X-1.425000X-0.362500X1.425000X-0.362500X1.425000X0.362500X0*%
%ADD28O,2.000000X1.500000*%
%ADD29R,1.400000X2.000000*%
%ADD30O,1.500000X2.000000*%
%ADD31FreePoly0,0.000000*%
%ADD32FreePoly1,0.000000*%
%ADD33R,1.000000X0.800000*%
%ADD34RoundRect,0.075000X0.075000X-0.662500X0.075000X0.662500X-0.075000X0.662500X-0.075000X-0.662500X0*%
%ADD35RoundRect,0.075000X0.662500X-0.075000X0.662500X0.075000X-0.662500X0.075000X-0.662500X-0.075000X0*%
%ADD36RoundRect,0.218750X0.256250X-0.218750X0.256250X0.218750X-0.256250X0.218750X-0.256250X-0.218750X0*%
%ADD37RoundRect,0.250000X-1.500000X-0.550000X1.500000X-0.550000X1.500000X0.550000X-1.500000X0.550000X0*%
%ADD38RoundRect,0.250000X0.650000X-1.000000X0.650000X1.000000X-0.650000X1.000000X-0.650000X-1.000000X0*%
%ADD39RoundRect,0.250000X0.250000X0.475000X-0.250000X0.475000X-0.250000X-0.475000X0.250000X-0.475000X0*%
%ADD40R,1.498600X3.987800*%
%ADD41R,1.000000X0.400000*%
%ADD42C,2.000000*%
%ADD43R,2.000000X3.000000*%
%ADD44RoundRect,0.150000X-0.150000X0.650000X-0.150000X-0.650000X0.150000X-0.650000X0.150000X0.650000X0*%
%ADD45R,3.100000X2.410000*%
%ADD46RoundRect,0.250000X-0.550000X1.500000X-0.550000X-1.500000X0.550000X-1.500000X0.550000X1.500000X0*%
G04 APERTURE END LIST*
D10*
%TO.C,U1*%
X2625000Y15820000D03*
X49575000Y15820000D03*
X2625000Y40330000D03*
X49575000Y40330000D03*
%TD*%
D11*
%TO.C,J3*%
X46144999Y40799999D03*
D12*
X43604999Y40799999D03*
X41064999Y40799999D03*
X38524999Y40799999D03*
X35984999Y40799999D03*
X33444999Y40799999D03*
X30904999Y40799999D03*
X28364999Y40799999D03*
X25824999Y40799999D03*
X23284999Y40799999D03*
X20744999Y40799999D03*
X18204999Y40799999D03*
X15664999Y40799999D03*
X13124999Y40799999D03*
X10584999Y40799999D03*
%TD*%
D11*
%TO.C,J2*%
X10584999Y15399999D03*
D12*
X13124999Y15399999D03*
X15664999Y15399999D03*
X18204999Y15399999D03*
X20744999Y15399999D03*
X23284999Y15399999D03*
X25824999Y15399999D03*
X28364999Y15399999D03*
X30904999Y15399999D03*
X33444999Y15399999D03*
X35984999Y15399999D03*
X38524999Y15399999D03*
X41064999Y15399999D03*
X43604999Y15399999D03*
X46144999Y15399999D03*
%TD*%
D13*
%TO.C,C52*%
X114830000Y19512500D03*
X114830000Y21062500D03*
%TD*%
D14*
%TO.C,C57*%
X146737500Y23950000D03*
X145187500Y23950000D03*
%TD*%
D15*
%TO.C,R35*%
X94205000Y20700000D03*
X94205000Y19050000D03*
%TD*%
D16*
%TO.C,R91*%
X179842500Y22025000D03*
X178192500Y22025000D03*
%TD*%
D17*
%TO.C,C17*%
X252900000Y31250000D03*
X254800000Y31250000D03*
%TD*%
D18*
%TO.C,R55*%
X129487500Y33450001D03*
X131137500Y33450001D03*
%TD*%
D14*
%TO.C,C4*%
X74920000Y26425000D03*
X73370000Y26425000D03*
%TD*%
%TO.C,C49*%
X107580001Y24137500D03*
X106030001Y24137500D03*
%TD*%
D15*
%TO.C,R33*%
X87705001Y20700000D03*
X87705001Y19050000D03*
%TD*%
D19*
%TO.C,C47*%
X105380001Y30962500D03*
X105380001Y29062500D03*
%TD*%
D20*
%TO.C,C120*%
X249990000Y31875000D03*
X249990000Y30325000D03*
%TD*%
D18*
%TO.C,R100*%
X202350000Y34400001D03*
X204000000Y34400001D03*
%TD*%
D21*
%TO.C,R17*%
X248415000Y30300000D03*
X248415000Y31950000D03*
%TD*%
D14*
%TO.C,C75*%
X170862500Y27525000D03*
X169312500Y27525000D03*
%TD*%
D15*
%TO.C,R111*%
X216604999Y21200000D03*
X216604999Y19550000D03*
%TD*%
D22*
%TO.C,C35*%
X81955001Y19025000D03*
X83505001Y19025000D03*
%TD*%
D23*
%TO.C,Y7*%
X219574999Y29999999D03*
X219574999Y32199999D03*
X217874999Y32199999D03*
X217874999Y29999999D03*
%TD*%
D22*
%TO.C,C61*%
X129537500Y31900001D03*
X131087500Y31900001D03*
%TD*%
D14*
%TO.C,C117*%
X244245000Y25275000D03*
X242695000Y25275000D03*
%TD*%
D15*
%TO.C,R126*%
X241249999Y21575000D03*
X241249999Y19925000D03*
%TD*%
D24*
%TO.C,H2*%
X1600000Y52025000D03*
X2302944Y53722056D03*
X2302944Y50327944D03*
X4000000Y54425000D03*
D25*
X4000000Y52025000D03*
D24*
X4000000Y49625000D03*
X5697056Y53722056D03*
X5697056Y50327944D03*
X6400000Y52025000D03*
%TD*%
D15*
%TO.C,R117*%
X231000000Y38050000D03*
X231000000Y36400000D03*
%TD*%
D26*
%TO.C,R54*%
X185575000Y5312500D03*
X185575000Y11237500D03*
%TD*%
D15*
%TO.C,R9*%
X63875000Y21125000D03*
X63875000Y19475000D03*
%TD*%
D13*
%TO.C,C112*%
X211654999Y19600000D03*
X211654999Y21150000D03*
%TD*%
D27*
%TO.C,R127*%
X218150000Y50862500D03*
X218150000Y44937500D03*
%TD*%
D19*
%TO.C,C107*%
X202205000Y31050000D03*
X202205000Y29150000D03*
%TD*%
D14*
%TO.C,C74*%
X155662500Y26850000D03*
X154112500Y26850000D03*
%TD*%
D13*
%TO.C,C54*%
X121330000Y19512500D03*
X121330000Y21062500D03*
%TD*%
D22*
%TO.C,C11*%
X58125000Y19450000D03*
X59675000Y19450000D03*
%TD*%
D28*
%TO.C,CT2-3*%
X176186639Y9374998D03*
D29*
X178706639Y8525106D03*
D30*
X174466640Y2225000D03*
D28*
X176986640Y1474999D03*
D30*
X174466640Y6924998D03*
%TD*%
D26*
%TO.C,R67*%
X218920460Y5337500D03*
X218920460Y11262500D03*
%TD*%
D31*
%TO.C,JP7*%
X102050000Y3100000D03*
D32*
X103350000Y3100000D03*
%TD*%
D33*
%TO.C,BR1*%
X262664999Y31114999D03*
X262664999Y28574999D03*
X268814999Y28574999D03*
X268814999Y31114999D03*
%TD*%
D15*
%TO.C,R10*%
X65425000Y21125000D03*
X65425000Y19475000D03*
%TD*%
D26*
%TO.C,R39*%
X135625000Y5312500D03*
X135625000Y11237500D03*
%TD*%
D15*
%TO.C,R65*%
X142192499Y20250000D03*
X142192499Y18600000D03*
%TD*%
D14*
%TO.C,C60*%
X146737500Y27100000D03*
X145187500Y27100000D03*
%TD*%
D31*
%TO.C,JP26*%
X233900000Y53125000D03*
D32*
X235200000Y53125000D03*
%TD*%
D16*
%TO.C,R62*%
X131542500Y20175000D03*
X129892500Y20175000D03*
%TD*%
%TO.C,R131*%
X250340000Y52525000D03*
X248690000Y52525000D03*
%TD*%
D15*
%TO.C,R119*%
X234100000Y38050000D03*
X234100000Y36400000D03*
%TD*%
D14*
%TO.C,C10*%
X59725000Y24150000D03*
X58175000Y24150000D03*
%TD*%
D20*
%TO.C,C66*%
X134092500Y20200000D03*
X134092500Y18650000D03*
%TD*%
D14*
%TO.C,C45*%
X122775001Y27962500D03*
X121225001Y27962500D03*
%TD*%
D13*
%TO.C,C127*%
X236299999Y19975000D03*
X236299999Y21525000D03*
%TD*%
D15*
%TO.C,R23*%
X250585000Y21850000D03*
X250585000Y20200000D03*
%TD*%
D14*
%TO.C,C90*%
X195012500Y27400000D03*
X193462500Y27400000D03*
%TD*%
D15*
%TO.C,R50*%
X118230000Y21112500D03*
X118230000Y19462500D03*
%TD*%
D26*
%TO.C,R68*%
X201925000Y4937500D03*
X201925000Y10862500D03*
%TD*%
D34*
%TO.C,IC5*%
X159687499Y24212500D03*
X160187499Y24212500D03*
X160687499Y24212500D03*
X161187499Y24212500D03*
X161687499Y24212500D03*
X162187499Y24212500D03*
X162687499Y24212500D03*
X163187499Y24212500D03*
X163687499Y24212500D03*
X164187499Y24212500D03*
X164687499Y24212500D03*
X165187499Y24212500D03*
D35*
X166599999Y25625000D03*
X166599999Y26125000D03*
X166599999Y26625000D03*
X166599999Y27125000D03*
X166599999Y27625000D03*
X166599999Y28125000D03*
X166599999Y28625000D03*
X166599999Y29125000D03*
X166599999Y29625000D03*
X166599999Y30125000D03*
X166599999Y30625000D03*
X166599999Y31125000D03*
D34*
X165187499Y32537500D03*
X164687499Y32537500D03*
X164187499Y32537500D03*
X163687499Y32537500D03*
X163187499Y32537500D03*
X162687499Y32537500D03*
X162187499Y32537500D03*
X161687499Y32537500D03*
X161187499Y32537500D03*
X160687499Y32537500D03*
X160187499Y32537500D03*
X159687499Y32537500D03*
D35*
X158274999Y31125000D03*
X158274999Y30625000D03*
X158274999Y30125000D03*
X158274999Y29625000D03*
X158274999Y29125000D03*
X158274999Y28625000D03*
X158274999Y28125000D03*
X158274999Y27625000D03*
X158274999Y27125000D03*
X158274999Y26625000D03*
X158274999Y26125000D03*
X158274999Y25625000D03*
%TD*%
D20*
%TO.C,C111*%
X206955000Y21150000D03*
X206955000Y19600000D03*
%TD*%
D18*
%TO.C,R16*%
X248590000Y45925000D03*
X250240000Y45925000D03*
%TD*%
D15*
%TO.C,R59*%
X136592500Y36725000D03*
X136592500Y35075000D03*
%TD*%
D28*
%TO.C,CT2-2*%
X126277550Y9374998D03*
D29*
X128797550Y8525106D03*
D30*
X124557551Y2225000D03*
D28*
X127077551Y1474999D03*
D30*
X124557551Y6924998D03*
%TD*%
D20*
%TO.C,C63*%
X131192500Y29725000D03*
X131192500Y28175000D03*
%TD*%
%TO.C,C133*%
X251490000Y35625000D03*
X251490000Y34075000D03*
%TD*%
D14*
%TO.C,C58*%
X146737500Y25550000D03*
X145187500Y25550000D03*
%TD*%
D20*
%TO.C,C130*%
X248390000Y35625000D03*
X248390000Y34075000D03*
%TD*%
D31*
%TO.C,JP25*%
X201175000Y53125000D03*
D32*
X202475000Y53125000D03*
%TD*%
D23*
%TO.C,Y5*%
X170837499Y29474999D03*
X170837499Y31674999D03*
X169137499Y31674999D03*
X169137499Y29474999D03*
%TD*%
D18*
%TO.C,R1*%
X57670000Y34325000D03*
X59320000Y34325000D03*
%TD*%
D14*
%TO.C,C100*%
X204405000Y25825000D03*
X202855000Y25825000D03*
%TD*%
D16*
%TO.C,R121*%
X229075000Y23050000D03*
X227425000Y23050000D03*
%TD*%
D28*
%TO.C,CT3-7*%
X193358804Y46750000D03*
D29*
X190838804Y47599892D03*
D30*
X195078803Y53899998D03*
D28*
X192558803Y54649999D03*
D30*
X195078803Y49200000D03*
%TD*%
D23*
%TO.C,Y4*%
X146712499Y29049999D03*
X146712499Y31249999D03*
X145012499Y31249999D03*
X145012499Y29049999D03*
%TD*%
D19*
%TO.C,C23*%
X252000000Y18550000D03*
X252000000Y16650000D03*
%TD*%
D15*
%TO.C,R125*%
X239699999Y21575000D03*
X239699999Y19925000D03*
%TD*%
D14*
%TO.C,C118*%
X250190000Y44375000D03*
X248640000Y44375000D03*
%TD*%
D27*
%TO.C,R83*%
X52225000Y50737500D03*
X52225000Y44812500D03*
%TD*%
D26*
%TO.C,R13*%
X69000000Y5412500D03*
X69000000Y11337500D03*
%TD*%
D14*
%TO.C,C25*%
X83555001Y25325000D03*
X82005001Y25325000D03*
%TD*%
D22*
%TO.C,C31*%
X81550001Y32350001D03*
X83100001Y32350001D03*
%TD*%
D14*
%TO.C,C6*%
X74920000Y27975000D03*
X73370000Y27975000D03*
%TD*%
D26*
%TO.C,R53*%
X152250000Y5337500D03*
X152250000Y11262500D03*
%TD*%
D14*
%TO.C,C34*%
X83555001Y23725000D03*
X82005001Y23725000D03*
%TD*%
D28*
%TO.C,CT1-1*%
X59732098Y9249998D03*
D29*
X62252098Y8400106D03*
D30*
X58012099Y2100000D03*
D28*
X60532099Y1349999D03*
D30*
X58012099Y6799998D03*
%TD*%
D16*
%TO.C,R7*%
X59750000Y22600000D03*
X58100000Y22600000D03*
%TD*%
D36*
%TO.C,CF3*%
X122600001Y34050000D03*
X122600001Y35625000D03*
%TD*%
D13*
%TO.C,C99*%
X193567499Y18950000D03*
X193567499Y20500000D03*
%TD*%
D18*
%TO.C,R115*%
X226995000Y34775001D03*
X228645000Y34775001D03*
%TD*%
D16*
%TO.C,R21*%
X250215000Y47475000D03*
X248565000Y47475000D03*
%TD*%
D14*
%TO.C,C132*%
X250265000Y49450000D03*
X248715000Y49450000D03*
%TD*%
D28*
%TO.C,CT3-4*%
X242732098Y9249998D03*
D29*
X245252098Y8400106D03*
D30*
X241012099Y2100000D03*
D28*
X243532099Y1349999D03*
D30*
X241012099Y6799998D03*
%TD*%
D26*
%TO.C,R52*%
X168850000Y5337500D03*
X168850000Y11262500D03*
%TD*%
D15*
%TO.C,R29*%
X88605001Y37175000D03*
X88605001Y35525000D03*
%TD*%
%TO.C,R89*%
X184867500Y37025000D03*
X184867500Y35375000D03*
%TD*%
D28*
%TO.C,CT2-4*%
X226095728Y9349998D03*
D29*
X228615728Y8500106D03*
D30*
X224375729Y2200000D03*
D28*
X226895729Y1449999D03*
D30*
X224375729Y6899998D03*
%TD*%
D15*
%TO.C,R4*%
X63225000Y37600000D03*
X63225000Y35950000D03*
%TD*%
D16*
%TO.C,R20*%
X253265000Y47475000D03*
X251615000Y47475000D03*
%TD*%
D14*
%TO.C,C70*%
X155667500Y25300000D03*
X154117500Y25300000D03*
%TD*%
D37*
%TO.C,C24*%
X253500000Y10400000D03*
X259100000Y10400000D03*
%TD*%
D28*
%TO.C,CT1-7*%
X160086078Y46700000D03*
D29*
X157566078Y47549892D03*
D30*
X161806077Y53849998D03*
D28*
X159286077Y54599999D03*
D30*
X161806077Y49150000D03*
%TD*%
D15*
%TO.C,R12*%
X71925000Y21125000D03*
X71925000Y19475000D03*
%TD*%
D28*
%TO.C,CT1-4*%
X209459365Y8949998D03*
D29*
X211979365Y8100106D03*
D30*
X207739366Y1800000D03*
D28*
X210259366Y1049999D03*
D30*
X207739366Y6499998D03*
%TD*%
D38*
%TO.C,D1*%
X258800000Y22100000D03*
X258800000Y26100000D03*
%TD*%
D34*
%TO.C,IC3*%
X111600000Y24650000D03*
X112100000Y24650000D03*
X112600000Y24650000D03*
X113100000Y24650000D03*
X113600000Y24650000D03*
X114100000Y24650000D03*
X114600000Y24650000D03*
X115100000Y24650000D03*
X115600000Y24650000D03*
X116100000Y24650000D03*
X116600000Y24650000D03*
X117100000Y24650000D03*
D35*
X118512500Y26062500D03*
X118512500Y26562500D03*
X118512500Y27062500D03*
X118512500Y27562500D03*
X118512500Y28062500D03*
X118512500Y28562500D03*
X118512500Y29062500D03*
X118512500Y29562500D03*
X118512500Y30062500D03*
X118512500Y30562500D03*
X118512500Y31062500D03*
X118512500Y31562500D03*
D34*
X117100000Y32975000D03*
X116600000Y32975000D03*
X116100000Y32975000D03*
X115600000Y32975000D03*
X115100000Y32975000D03*
X114600000Y32975000D03*
X114100000Y32975000D03*
X113600000Y32975000D03*
X113100000Y32975000D03*
X112600000Y32975000D03*
X112100000Y32975000D03*
X111600000Y32975000D03*
D35*
X110187500Y31562500D03*
X110187500Y31062500D03*
X110187500Y30562500D03*
X110187500Y30062500D03*
X110187500Y29562500D03*
X110187500Y29062500D03*
X110187500Y28562500D03*
X110187500Y28062500D03*
X110187500Y27562500D03*
X110187500Y27062500D03*
X110187500Y26562500D03*
X110187500Y26062500D03*
%TD*%
D15*
%TO.C,R88*%
X183317500Y37025000D03*
X183317500Y35375000D03*
%TD*%
D31*
%TO.C,JP1*%
X68650000Y3175000D03*
D32*
X69950000Y3175000D03*
%TD*%
D15*
%TO.C,R44*%
X112630001Y37587500D03*
X112630001Y35937500D03*
%TD*%
D18*
%TO.C,R25*%
X81500001Y33900001D03*
X83150001Y33900001D03*
%TD*%
D21*
%TO.C,R105*%
X217825000Y34100000D03*
X217825000Y35750000D03*
%TD*%
D20*
%TO.C,C68*%
X140642499Y20200000D03*
X140642499Y18650000D03*
%TD*%
D18*
%TO.C,R26*%
X81550001Y35500001D03*
X83200001Y35500001D03*
%TD*%
D14*
%TO.C,C104*%
X204400000Y27375000D03*
X202850000Y27375000D03*
%TD*%
D16*
%TO.C,R106*%
X204430000Y22675000D03*
X202780000Y22675000D03*
%TD*%
D28*
%TO.C,CT3-1*%
X93004824Y9374998D03*
D29*
X95524824Y8525106D03*
D30*
X91284825Y2225000D03*
D28*
X93804825Y1474999D03*
D30*
X91284825Y6924998D03*
%TD*%
D18*
%TO.C,R86*%
X177812500Y35350001D03*
X179462500Y35350001D03*
%TD*%
D39*
%TO.C,C101*%
X219975000Y23100000D03*
X218075000Y23100000D03*
%TD*%
D36*
%TO.C,CF7*%
X219425000Y34137500D03*
X219425000Y35712500D03*
%TD*%
D13*
%TO.C,C129*%
X242799999Y19975000D03*
X242799999Y21525000D03*
%TD*%
D15*
%TO.C,R109*%
X210104999Y21200000D03*
X210104999Y19550000D03*
%TD*%
%TO.C,R95*%
X190467499Y20550000D03*
X190467499Y18900000D03*
%TD*%
D16*
%TO.C,R32*%
X83555001Y20625000D03*
X81905001Y20625000D03*
%TD*%
D15*
%TO.C,R42*%
X109530001Y37587500D03*
X109530001Y35937500D03*
%TD*%
D23*
%TO.C,Y8*%
X244219999Y30374999D03*
X244219999Y32574999D03*
X242519999Y32574999D03*
X242519999Y30374999D03*
%TD*%
D15*
%TO.C,R28*%
X87055001Y37175000D03*
X87055001Y35525000D03*
%TD*%
D23*
%TO.C,Y1*%
X74894999Y29924999D03*
X74894999Y32124999D03*
X73194999Y32124999D03*
X73194999Y29924999D03*
%TD*%
D15*
%TO.C,R5*%
X64775000Y37600000D03*
X64775000Y35950000D03*
%TD*%
D31*
%TO.C,JP22*%
X151225000Y52925000D03*
D32*
X152525000Y52925000D03*
%TD*%
D18*
%TO.C,R70*%
X153612500Y33875001D03*
X155262500Y33875001D03*
%TD*%
%TO.C,R2*%
X57720000Y35925000D03*
X59370000Y35925000D03*
%TD*%
D24*
%TO.C,H1*%
X1600000Y4025000D03*
X2302944Y5722056D03*
X2302944Y2327944D03*
X4000000Y6425000D03*
D25*
X4000000Y4025000D03*
D24*
X4000000Y1625000D03*
X5697056Y5722056D03*
X5697056Y2327944D03*
X6400000Y4025000D03*
%TD*%
D14*
%TO.C,C89*%
X179812500Y26725000D03*
X178262500Y26725000D03*
%TD*%
D15*
%TO.C,R36*%
X95755000Y20700000D03*
X95755000Y19050000D03*
%TD*%
D26*
%TO.C,R15*%
X85650000Y5312500D03*
X85650000Y11237500D03*
%TD*%
D15*
%TO.C,R27*%
X85505001Y37175000D03*
X85505001Y35525000D03*
%TD*%
D16*
%TO.C,R122*%
X229050000Y21500000D03*
X227400000Y21500000D03*
%TD*%
D19*
%TO.C,C122*%
X226850000Y31425000D03*
X226850000Y29525000D03*
%TD*%
D14*
%TO.C,C115*%
X229050000Y26200000D03*
X227500000Y26200000D03*
%TD*%
D31*
%TO.C,JP18*%
X117950000Y52975000D03*
D32*
X119250000Y52975000D03*
%TD*%
D31*
%TO.C,JP12*%
X218520460Y3100000D03*
D32*
X219820460Y3100000D03*
%TD*%
D16*
%TO.C,R130*%
X253365000Y52525000D03*
X251715000Y52525000D03*
%TD*%
D28*
%TO.C,CT2-7*%
X176722441Y46700000D03*
D29*
X174202441Y47549892D03*
D30*
X178442440Y53849998D03*
D28*
X175922440Y54599999D03*
D30*
X178442440Y49150000D03*
%TD*%
D39*
%TO.C,C71*%
X171237500Y22575000D03*
X169337500Y22575000D03*
%TD*%
D15*
%TO.C,R103*%
X207905000Y37675000D03*
X207905000Y36025000D03*
%TD*%
%TO.C,R108*%
X208555000Y21200000D03*
X208555000Y19550000D03*
%TD*%
D34*
%TO.C,IC7*%
X208424999Y24737500D03*
X208924999Y24737500D03*
X209424999Y24737500D03*
X209924999Y24737500D03*
X210424999Y24737500D03*
X210924999Y24737500D03*
X211424999Y24737500D03*
X211924999Y24737500D03*
X212424999Y24737500D03*
X212924999Y24737500D03*
X213424999Y24737500D03*
X213924999Y24737500D03*
D35*
X215337499Y26150000D03*
X215337499Y26650000D03*
X215337499Y27150000D03*
X215337499Y27650000D03*
X215337499Y28150000D03*
X215337499Y28650000D03*
X215337499Y29150000D03*
X215337499Y29650000D03*
X215337499Y30150000D03*
X215337499Y30650000D03*
X215337499Y31150000D03*
X215337499Y31650000D03*
D34*
X213924999Y33062500D03*
X213424999Y33062500D03*
X212924999Y33062500D03*
X212424999Y33062500D03*
X211924999Y33062500D03*
X211424999Y33062500D03*
X210924999Y33062500D03*
X210424999Y33062500D03*
X209924999Y33062500D03*
X209424999Y33062500D03*
X208924999Y33062500D03*
X208424999Y33062500D03*
D35*
X207012499Y31650000D03*
X207012499Y31150000D03*
X207012499Y30650000D03*
X207012499Y30150000D03*
X207012499Y29650000D03*
X207012499Y29150000D03*
X207012499Y28650000D03*
X207012499Y28150000D03*
X207012499Y27650000D03*
X207012499Y27150000D03*
X207012499Y26650000D03*
X207012499Y26150000D03*
%TD*%
D13*
%TO.C,C84*%
X169417499Y19075000D03*
X169417499Y20625000D03*
%TD*%
D19*
%TO.C,C8*%
X57525000Y30975000D03*
X57525000Y29075000D03*
%TD*%
D22*
%TO.C,C91*%
X177812500Y32200001D03*
X179362500Y32200001D03*
%TD*%
D16*
%TO.C,R92*%
X179817500Y20475000D03*
X178167500Y20475000D03*
%TD*%
D13*
%TO.C,C39*%
X97305000Y19100000D03*
X97305000Y20650000D03*
%TD*%
D27*
%TO.C,R99*%
X135275000Y50587500D03*
X135275000Y44662500D03*
%TD*%
D15*
%TO.C,R110*%
X215054999Y21200000D03*
X215054999Y19550000D03*
%TD*%
D31*
%TO.C,JP8*%
X135225000Y3025000D03*
D32*
X136525000Y3025000D03*
%TD*%
D21*
%TO.C,R19*%
X248515000Y37725000D03*
X248515000Y39375000D03*
%TD*%
D28*
%TO.C,CT1-6*%
X110176989Y46750000D03*
D29*
X107656989Y47599892D03*
D30*
X111896988Y53899998D03*
D28*
X109376988Y54649999D03*
D30*
X111896988Y49200000D03*
%TD*%
D16*
%TO.C,R107*%
X204405000Y21125000D03*
X202755000Y21125000D03*
%TD*%
D15*
%TO.C,R72*%
X157617500Y37150000D03*
X157617500Y35500000D03*
%TD*%
D19*
%TO.C,C32*%
X81355001Y30550000D03*
X81355001Y28650000D03*
%TD*%
D23*
%TO.C,Y3*%
X122750000Y29912499D03*
X122750000Y32112499D03*
X121050000Y32112499D03*
X121050000Y29912499D03*
%TD*%
D20*
%TO.C,C48*%
X107230001Y30587500D03*
X107230001Y29037500D03*
%TD*%
D39*
%TO.C,C86*%
X195387500Y22450000D03*
X193487500Y22450000D03*
%TD*%
D14*
%TO.C,C73*%
X170862500Y25975000D03*
X169312500Y25975000D03*
%TD*%
D20*
%TO.C,C113*%
X213504999Y21150000D03*
X213504999Y19600000D03*
%TD*%
D27*
%TO.C,R128*%
X202125000Y50837500D03*
X202125000Y44912500D03*
%TD*%
D14*
%TO.C,C30*%
X98750001Y27550000D03*
X97200001Y27550000D03*
%TD*%
D27*
%TO.C,R97*%
X118850000Y50737500D03*
X118850000Y44812500D03*
%TD*%
D20*
%TO.C,C131*%
X250090000Y39325000D03*
X250090000Y37775000D03*
%TD*%
D39*
%TO.C,C56*%
X147112500Y22150000D03*
X145212500Y22150000D03*
%TD*%
D31*
%TO.C,JP23*%
X184650000Y52975000D03*
D32*
X185950000Y52975000D03*
%TD*%
D36*
%TO.C,CF8*%
X244070000Y34512500D03*
X244070000Y36087500D03*
%TD*%
D21*
%TO.C,R45*%
X121000001Y34012500D03*
X121000001Y35662500D03*
%TD*%
D15*
%TO.C,R51*%
X119780000Y21112500D03*
X119780000Y19462500D03*
%TD*%
D14*
%TO.C,C27*%
X98750001Y24400000D03*
X97200001Y24400000D03*
%TD*%
D21*
%TO.C,R30*%
X96975001Y33600000D03*
X96975001Y35250000D03*
%TD*%
D16*
%TO.C,R46*%
X107605001Y22587500D03*
X105955001Y22587500D03*
%TD*%
D27*
%TO.C,R82*%
X68975000Y50775000D03*
X68975000Y44850000D03*
%TD*%
D28*
%TO.C,CT1-5*%
X60267900Y46750000D03*
D29*
X57747900Y47599892D03*
D30*
X61987899Y53899998D03*
D28*
X59467899Y54649999D03*
D30*
X61987899Y49200000D03*
%TD*%
D15*
%TO.C,R93*%
X183967500Y20550000D03*
X183967500Y18900000D03*
%TD*%
D36*
%TO.C,CF4*%
X146562500Y33187500D03*
X146562500Y34762500D03*
%TD*%
D20*
%TO.C,C128*%
X238149999Y21525000D03*
X238149999Y19975000D03*
%TD*%
D15*
%TO.C,R48*%
X111730001Y21112500D03*
X111730001Y19462500D03*
%TD*%
D16*
%TO.C,R31*%
X83580001Y22175000D03*
X81930001Y22175000D03*
%TD*%
D31*
%TO.C,JP17*%
X84825000Y53050000D03*
D32*
X86125000Y53050000D03*
%TD*%
D39*
%TO.C,C116*%
X244620000Y23475000D03*
X242720000Y23475000D03*
%TD*%
D20*
%TO.C,C98*%
X188917499Y20500000D03*
X188917499Y18950000D03*
%TD*%
D31*
%TO.C,JP10*%
X151900000Y3050000D03*
D32*
X153200000Y3050000D03*
%TD*%
D15*
%TO.C,R11*%
X70375000Y21125000D03*
X70375000Y19475000D03*
%TD*%
D20*
%TO.C,C51*%
X110130001Y21062500D03*
X110130001Y19512500D03*
%TD*%
D17*
%TO.C,C18*%
X252900000Y29200000D03*
X254800000Y29200000D03*
%TD*%
D21*
%TO.C,R90*%
X193237500Y33450000D03*
X193237500Y35100000D03*
%TD*%
D26*
%TO.C,R14*%
X52500000Y5412500D03*
X52500000Y11337500D03*
%TD*%
D18*
%TO.C,R40*%
X105525001Y34312501D03*
X107175001Y34312501D03*
%TD*%
D31*
%TO.C,JP24*%
X217250000Y53200000D03*
D32*
X218550000Y53200000D03*
%TD*%
D19*
%TO.C,C92*%
X177617500Y30400000D03*
X177617500Y28500000D03*
%TD*%
D26*
%TO.C,R38*%
X102450000Y5387500D03*
X102450000Y11312500D03*
%TD*%
D24*
%TO.C,H3*%
X263600000Y4000000D03*
X264302944Y5697056D03*
X264302944Y2302944D03*
X266000000Y6400000D03*
D25*
X266000000Y4000000D03*
D24*
X266000000Y1600000D03*
X267697056Y5697056D03*
X267697056Y2302944D03*
X268400000Y4000000D03*
%TD*%
D14*
%TO.C,C1*%
X59725000Y25750000D03*
X58175000Y25750000D03*
%TD*%
D31*
%TO.C,JP16*%
X51325000Y53625000D03*
D32*
X52625000Y53625000D03*
%TD*%
D15*
%TO.C,R87*%
X181767500Y37025000D03*
X181767500Y35375000D03*
%TD*%
D39*
%TO.C,C26*%
X99125001Y22600000D03*
X97225001Y22600000D03*
%TD*%
D22*
%TO.C,C95*%
X178217500Y18875000D03*
X179767500Y18875000D03*
%TD*%
D15*
%TO.C,R123*%
X233200000Y21575000D03*
X233200000Y19925000D03*
%TD*%
D13*
%TO.C,C114*%
X218154999Y19600000D03*
X218154999Y21150000D03*
%TD*%
D16*
%TO.C,R76*%
X155692500Y22150000D03*
X154042500Y22150000D03*
%TD*%
D20*
%TO.C,C33*%
X83205001Y30175000D03*
X83205001Y28625000D03*
%TD*%
D36*
%TO.C,CF1*%
X74745000Y34062500D03*
X74745000Y35637500D03*
%TD*%
D28*
%TO.C,CT3-5*%
X93540626Y46750000D03*
D29*
X91020626Y47599892D03*
D30*
X95260625Y53899998D03*
D28*
X92740625Y54649999D03*
D30*
X95260625Y49200000D03*
%TD*%
D20*
%TO.C,C53*%
X116680000Y21062500D03*
X116680000Y19512500D03*
%TD*%
D40*
%TO.C,L1*%
X259491799Y17499999D03*
X255884999Y17499999D03*
%TD*%
D14*
%TO.C,C42*%
X122775001Y24812500D03*
X121225001Y24812500D03*
%TD*%
D31*
%TO.C,JP9*%
X168500000Y3100000D03*
D32*
X169800000Y3100000D03*
%TD*%
D31*
%TO.C,JP2*%
X51600000Y3175000D03*
D32*
X52900000Y3175000D03*
%TD*%
D14*
%TO.C,C72*%
X170862500Y24375000D03*
X169312500Y24375000D03*
%TD*%
D20*
%TO.C,C78*%
X155317500Y30150000D03*
X155317500Y28600000D03*
%TD*%
D41*
%TO.C,U2*%
X14744999Y51599999D03*
X14744999Y50949999D03*
X14744999Y50299999D03*
X14744999Y49649999D03*
X14744999Y48999999D03*
X14744999Y48349999D03*
X14744999Y47699999D03*
X14744999Y47049999D03*
X20544999Y47049999D03*
X20544999Y47699999D03*
X20544999Y48349999D03*
X20544999Y48999999D03*
X20544999Y49649999D03*
X20544999Y50299999D03*
X20544999Y50949999D03*
X20544999Y51599999D03*
%TD*%
D27*
%TO.C,R129*%
X234850000Y50837500D03*
X234850000Y44912500D03*
%TD*%
D14*
%TO.C,C43*%
X122775001Y26412500D03*
X121225001Y26412500D03*
%TD*%
%TO.C,C87*%
X195012500Y24250000D03*
X193462500Y24250000D03*
%TD*%
D28*
%TO.C,CT3-2*%
X142913913Y9374998D03*
D29*
X145433913Y8525106D03*
D30*
X141193914Y2225000D03*
D28*
X143713914Y1474999D03*
D30*
X141193914Y6924998D03*
%TD*%
D20*
%TO.C,C38*%
X92655000Y20650000D03*
X92655000Y19100000D03*
%TD*%
D16*
%TO.C,R47*%
X107580001Y21037500D03*
X105930001Y21037500D03*
%TD*%
D24*
%TO.C,H4*%
X263600000Y52000000D03*
X264302944Y53697056D03*
X264302944Y50302944D03*
X266000000Y54400000D03*
D25*
X266000000Y52000000D03*
D24*
X266000000Y49600000D03*
X267697056Y53697056D03*
X267697056Y50302944D03*
X268400000Y52000000D03*
%TD*%
D31*
%TO.C,JP11*%
X185175000Y3075000D03*
D32*
X186475000Y3075000D03*
%TD*%
D21*
%TO.C,R120*%
X242470000Y34475000D03*
X242470000Y36125000D03*
%TD*%
D20*
%TO.C,C81*%
X158217500Y20625000D03*
X158217500Y19075000D03*
%TD*%
D39*
%TO.C,C41*%
X123150001Y23012500D03*
X121250001Y23012500D03*
%TD*%
D30*
%TO.C,J1*%
X264174999Y40699999D03*
D42*
X259775000Y40700000D03*
D43*
X264274999Y35199999D03*
X258274999Y35199999D03*
X258274999Y46199999D03*
X264274999Y46199999D03*
%TD*%
D28*
%TO.C,CT2-6*%
X126813352Y46700000D03*
D29*
X124293352Y47549892D03*
D30*
X128533351Y53849998D03*
D28*
X126013351Y54599999D03*
D30*
X128533351Y49150000D03*
%TD*%
D31*
%TO.C,JP20*%
X134375000Y52875000D03*
D32*
X135675000Y52875000D03*
%TD*%
D14*
%TO.C,C109*%
X204405000Y24225000D03*
X202855000Y24225000D03*
%TD*%
%TO.C,C44*%
X107575001Y27287500D03*
X106025001Y27287500D03*
%TD*%
D21*
%TO.C,R18*%
X249915000Y34025000D03*
X249915000Y35675000D03*
%TD*%
D14*
%TO.C,C55*%
X131542500Y24875000D03*
X129992500Y24875000D03*
%TD*%
D36*
%TO.C,CF2*%
X98575001Y33637500D03*
X98575001Y35212500D03*
%TD*%
D18*
%TO.C,R132*%
X248690000Y51000000D03*
X250340000Y51000000D03*
%TD*%
D14*
%TO.C,C85*%
X179817500Y25175000D03*
X178267500Y25175000D03*
%TD*%
D13*
%TO.C,C22*%
X253840000Y16800000D03*
X253840000Y18350000D03*
%TD*%
D15*
%TO.C,R81*%
X167867499Y20675000D03*
X167867499Y19025000D03*
%TD*%
D20*
%TO.C,C36*%
X86105001Y20650000D03*
X86105001Y19100000D03*
%TD*%
D18*
%TO.C,R56*%
X129537500Y35050001D03*
X131187500Y35050001D03*
%TD*%
D15*
%TO.C,R3*%
X61675000Y37600000D03*
X61675000Y35950000D03*
%TD*%
D18*
%TO.C,R85*%
X177762500Y33750001D03*
X179412500Y33750001D03*
%TD*%
D14*
%TO.C,C124*%
X229050000Y24600000D03*
X227500000Y24600000D03*
%TD*%
D22*
%TO.C,C65*%
X129942500Y18575000D03*
X131492500Y18575000D03*
%TD*%
%TO.C,C50*%
X105980001Y19437500D03*
X107530001Y19437500D03*
%TD*%
D36*
%TO.C,CF6*%
X194837500Y33487500D03*
X194837500Y35062500D03*
%TD*%
D14*
%TO.C,C20*%
X250600000Y24250000D03*
X249050000Y24250000D03*
%TD*%
D20*
%TO.C,C83*%
X164767499Y20625000D03*
X164767499Y19075000D03*
%TD*%
D14*
%TO.C,C64*%
X131542500Y23275000D03*
X129992500Y23275000D03*
%TD*%
%TO.C,C79*%
X155667500Y23700000D03*
X154117500Y23700000D03*
%TD*%
%TO.C,C105*%
X219600000Y28050000D03*
X218050000Y28050000D03*
%TD*%
D31*
%TO.C,JP3*%
X85300000Y3025000D03*
D32*
X86600000Y3025000D03*
%TD*%
D15*
%TO.C,R74*%
X160717500Y37150000D03*
X160717500Y35500000D03*
%TD*%
D20*
%TO.C,C14*%
X68825000Y21075000D03*
X68825000Y19525000D03*
%TD*%
D15*
%TO.C,R49*%
X113280000Y21112500D03*
X113280000Y19462500D03*
%TD*%
D18*
%TO.C,R41*%
X105575001Y35912501D03*
X107225001Y35912501D03*
%TD*%
D31*
%TO.C,JP21*%
X168000000Y52975000D03*
D32*
X169300000Y52975000D03*
%TD*%
D16*
%TO.C,R61*%
X131567500Y21725000D03*
X129917500Y21725000D03*
%TD*%
D31*
%TO.C,JP19*%
X101175000Y52925000D03*
D32*
X102475000Y52925000D03*
%TD*%
D13*
%TO.C,C15*%
X73475000Y19525000D03*
X73475000Y21075000D03*
%TD*%
%TO.C,C67*%
X138792499Y18650000D03*
X138792499Y20200000D03*
%TD*%
D27*
%TO.C,R84*%
X85725000Y50825000D03*
X85725000Y44900000D03*
%TD*%
D19*
%TO.C,C77*%
X153467500Y30525000D03*
X153467500Y28625000D03*
%TD*%
D18*
%TO.C,R71*%
X153662500Y35475001D03*
X155312500Y35475001D03*
%TD*%
D15*
%TO.C,R43*%
X111080001Y37587500D03*
X111080001Y35937500D03*
%TD*%
D20*
%TO.C,C126*%
X231600000Y21525000D03*
X231600000Y19975000D03*
%TD*%
D28*
%TO.C,CT3-6*%
X143449715Y46650000D03*
D29*
X140929715Y47499892D03*
D30*
X145169714Y53799998D03*
D28*
X142649714Y54549999D03*
D30*
X145169714Y49100000D03*
%TD*%
D18*
%TO.C,R101*%
X202400000Y36000001D03*
X204050000Y36000001D03*
%TD*%
D21*
%TO.C,R75*%
X169087500Y33575000D03*
X169087500Y35225000D03*
%TD*%
D41*
%TO.C,U5*%
X39689999Y51599999D03*
X39689999Y50949999D03*
X39689999Y50299999D03*
X39689999Y49649999D03*
X39689999Y48999999D03*
X39689999Y48349999D03*
X39689999Y47699999D03*
X39689999Y47049999D03*
X45489999Y47049999D03*
X45489999Y47699999D03*
X45489999Y48349999D03*
X45489999Y48999999D03*
X45489999Y49649999D03*
X45489999Y50299999D03*
X45489999Y50949999D03*
X45489999Y51599999D03*
%TD*%
D14*
%TO.C,C40*%
X107580001Y25737500D03*
X106030001Y25737500D03*
%TD*%
%TO.C,C3*%
X74920000Y24825000D03*
X73370000Y24825000D03*
%TD*%
%TO.C,C88*%
X195012500Y25850000D03*
X193462500Y25850000D03*
%TD*%
D27*
%TO.C,R113*%
X152125000Y50737500D03*
X152125000Y44812500D03*
%TD*%
D21*
%TO.C,R60*%
X144962500Y33150000D03*
X144962500Y34800000D03*
%TD*%
D28*
%TO.C,CT2-5*%
X76904263Y46650000D03*
D29*
X74384263Y47499892D03*
D30*
X78624262Y53799998D03*
D28*
X76104262Y54549999D03*
D30*
X78624262Y49100000D03*
%TD*%
D31*
%TO.C,JP15*%
X68075000Y53062500D03*
D32*
X69375000Y53062500D03*
%TD*%
D15*
%TO.C,R22*%
X250585000Y27400000D03*
X250585000Y25750000D03*
%TD*%
D21*
%TO.C,R6*%
X73145000Y34025000D03*
X73145000Y35675000D03*
%TD*%
D20*
%TO.C,C96*%
X182367500Y20500000D03*
X182367500Y18950000D03*
%TD*%
D14*
%TO.C,C19*%
X259825000Y28450000D03*
X258275000Y28450000D03*
%TD*%
%TO.C,C5*%
X59720000Y27300000D03*
X58170000Y27300000D03*
%TD*%
D26*
%TO.C,R69*%
X235275000Y5287500D03*
X235275000Y11212500D03*
%TD*%
D31*
%TO.C,JP6*%
X118600000Y3075000D03*
D32*
X119900000Y3075000D03*
%TD*%
D44*
%TO.C,U3*%
X256055000Y27000000D03*
X254785000Y27000000D03*
X253515000Y27000000D03*
X252245000Y27000000D03*
X252245000Y21700000D03*
X253515000Y21700000D03*
X254785000Y21700000D03*
X256055000Y21700000D03*
D45*
X254149999Y24349999D03*
%TD*%
D28*
%TO.C,CT1-2*%
X109641187Y9374998D03*
D29*
X112161187Y8525106D03*
D30*
X107921188Y2225000D03*
D28*
X110441188Y1474999D03*
D30*
X107921188Y6924998D03*
%TD*%
D15*
%TO.C,R78*%
X159817500Y20675000D03*
X159817500Y19025000D03*
%TD*%
D26*
%TO.C,R37*%
X119000000Y5362500D03*
X119000000Y11287500D03*
%TD*%
D20*
%TO.C,C123*%
X228700000Y31050000D03*
X228700000Y29500000D03*
%TD*%
D22*
%TO.C,C46*%
X105575001Y32762501D03*
X107125001Y32762501D03*
%TD*%
D14*
%TO.C,C29*%
X83550001Y26875000D03*
X82000001Y26875000D03*
%TD*%
D22*
%TO.C,C76*%
X153662500Y32325001D03*
X155212500Y32325001D03*
%TD*%
%TO.C,C121*%
X227045000Y33225001D03*
X228595000Y33225001D03*
%TD*%
D23*
%TO.C,Y6*%
X194987499Y29349999D03*
X194987499Y31549999D03*
X193287499Y31549999D03*
X193287499Y29349999D03*
%TD*%
D34*
%TO.C,IC4*%
X135562499Y23787500D03*
X136062499Y23787500D03*
X136562499Y23787500D03*
X137062499Y23787500D03*
X137562499Y23787500D03*
X138062499Y23787500D03*
X138562499Y23787500D03*
X139062499Y23787500D03*
X139562499Y23787500D03*
X140062499Y23787500D03*
X140562499Y23787500D03*
X141062499Y23787500D03*
D35*
X142474999Y25200000D03*
X142474999Y25700000D03*
X142474999Y26200000D03*
X142474999Y26700000D03*
X142474999Y27200000D03*
X142474999Y27700000D03*
X142474999Y28200000D03*
X142474999Y28700000D03*
X142474999Y29200000D03*
X142474999Y29700000D03*
X142474999Y30200000D03*
X142474999Y30700000D03*
D34*
X141062499Y32112500D03*
X140562499Y32112500D03*
X140062499Y32112500D03*
X139562499Y32112500D03*
X139062499Y32112500D03*
X138562499Y32112500D03*
X138062499Y32112500D03*
X137562499Y32112500D03*
X137062499Y32112500D03*
X136562499Y32112500D03*
X136062499Y32112500D03*
X135562499Y32112500D03*
D35*
X134149999Y30700000D03*
X134149999Y30200000D03*
X134149999Y29700000D03*
X134149999Y29200000D03*
X134149999Y28700000D03*
X134149999Y28200000D03*
X134149999Y27700000D03*
X134149999Y27200000D03*
X134149999Y26700000D03*
X134149999Y26200000D03*
X134149999Y25700000D03*
X134149999Y25200000D03*
%TD*%
D20*
%TO.C,C21*%
X249035000Y21800000D03*
X249035000Y20250000D03*
%TD*%
D15*
%TO.C,R80*%
X166317499Y20675000D03*
X166317499Y19025000D03*
%TD*%
%TO.C,R104*%
X209455000Y37675000D03*
X209455000Y36025000D03*
%TD*%
D28*
%TO.C,CT1-3*%
X159550276Y9374998D03*
D29*
X162070276Y8525106D03*
D30*
X157830277Y2225000D03*
D28*
X160350277Y1474999D03*
D30*
X157830277Y6924998D03*
%TD*%
D15*
%TO.C,R58*%
X135042500Y36725000D03*
X135042500Y35075000D03*
%TD*%
D34*
%TO.C,IC6*%
X183837499Y24087500D03*
X184337499Y24087500D03*
X184837499Y24087500D03*
X185337499Y24087500D03*
X185837499Y24087500D03*
X186337499Y24087500D03*
X186837499Y24087500D03*
X187337499Y24087500D03*
X187837499Y24087500D03*
X188337499Y24087500D03*
X188837499Y24087500D03*
X189337499Y24087500D03*
D35*
X190749999Y25500000D03*
X190749999Y26000000D03*
X190749999Y26500000D03*
X190749999Y27000000D03*
X190749999Y27500000D03*
X190749999Y28000000D03*
X190749999Y28500000D03*
X190749999Y29000000D03*
X190749999Y29500000D03*
X190749999Y30000000D03*
X190749999Y30500000D03*
X190749999Y31000000D03*
D34*
X189337499Y32412500D03*
X188837499Y32412500D03*
X188337499Y32412500D03*
X187837499Y32412500D03*
X187337499Y32412500D03*
X186837499Y32412500D03*
X186337499Y32412500D03*
X185837499Y32412500D03*
X185337499Y32412500D03*
X184837499Y32412500D03*
X184337499Y32412500D03*
X183837499Y32412500D03*
D35*
X182424999Y31000000D03*
X182424999Y30500000D03*
X182424999Y30000000D03*
X182424999Y29500000D03*
X182424999Y29000000D03*
X182424999Y28500000D03*
X182424999Y28000000D03*
X182424999Y27500000D03*
X182424999Y27000000D03*
X182424999Y26500000D03*
X182424999Y26000000D03*
X182424999Y25500000D03*
%TD*%
D14*
%TO.C,C103*%
X219600000Y26500000D03*
X218050000Y26500000D03*
%TD*%
D15*
%TO.C,R79*%
X161367499Y20675000D03*
X161367499Y19025000D03*
%TD*%
D28*
%TO.C,CT3-8*%
X243267900Y46750000D03*
D29*
X240747900Y47599892D03*
D30*
X244987899Y53899998D03*
D28*
X242467899Y54649999D03*
D30*
X244987899Y49200000D03*
%TD*%
D22*
%TO.C,C80*%
X154067500Y19000000D03*
X155617500Y19000000D03*
%TD*%
D15*
%TO.C,R118*%
X232550000Y38050000D03*
X232550000Y36400000D03*
%TD*%
D27*
%TO.C,R112*%
X168900000Y50737500D03*
X168900000Y44812500D03*
%TD*%
D28*
%TO.C,CT3-3*%
X192823002Y9374998D03*
D29*
X195343002Y8525106D03*
D30*
X191103003Y2225000D03*
D28*
X193623003Y1474999D03*
D30*
X191103003Y6924998D03*
%TD*%
D41*
%TO.C,U4*%
X27217499Y51599999D03*
X27217499Y50949999D03*
X27217499Y50299999D03*
X27217499Y49649999D03*
X27217499Y48999999D03*
X27217499Y48349999D03*
X27217499Y47699999D03*
X27217499Y47049999D03*
X33017499Y47049999D03*
X33017499Y47699999D03*
X33017499Y48349999D03*
X33017499Y48999999D03*
X33017499Y49649999D03*
X33017499Y50299999D03*
X33017499Y50949999D03*
X33017499Y51599999D03*
%TD*%
D13*
%TO.C,C82*%
X162917499Y19075000D03*
X162917499Y20625000D03*
%TD*%
D27*
%TO.C,R98*%
X102125000Y50687500D03*
X102125000Y44762500D03*
%TD*%
D13*
%TO.C,C37*%
X90805000Y19100000D03*
X90805000Y20650000D03*
%TD*%
D16*
%TO.C,R77*%
X155667500Y20600000D03*
X154017500Y20600000D03*
%TD*%
D13*
%TO.C,C69*%
X145292499Y18650000D03*
X145292499Y20200000D03*
%TD*%
D14*
%TO.C,C102*%
X219600000Y24900000D03*
X218050000Y24900000D03*
%TD*%
D15*
%TO.C,R57*%
X133492500Y36725000D03*
X133492500Y35075000D03*
%TD*%
D14*
%TO.C,C59*%
X131537500Y26425000D03*
X129987500Y26425000D03*
%TD*%
D34*
%TO.C,IC2*%
X87575000Y24237500D03*
X88075000Y24237500D03*
X88575000Y24237500D03*
X89075000Y24237500D03*
X89575000Y24237500D03*
X90075000Y24237500D03*
X90575000Y24237500D03*
X91075000Y24237500D03*
X91575000Y24237500D03*
X92075000Y24237500D03*
X92575000Y24237500D03*
X93075000Y24237500D03*
D35*
X94487500Y25650000D03*
X94487500Y26150000D03*
X94487500Y26650000D03*
X94487500Y27150000D03*
X94487500Y27650000D03*
X94487500Y28150000D03*
X94487500Y28650000D03*
X94487500Y29150000D03*
X94487500Y29650000D03*
X94487500Y30150000D03*
X94487500Y30650000D03*
X94487500Y31150000D03*
D34*
X93075000Y32562500D03*
X92575000Y32562500D03*
X92075000Y32562500D03*
X91575000Y32562500D03*
X91075000Y32562500D03*
X90575000Y32562500D03*
X90075000Y32562500D03*
X89575000Y32562500D03*
X89075000Y32562500D03*
X88575000Y32562500D03*
X88075000Y32562500D03*
X87575000Y32562500D03*
D35*
X86162500Y31150000D03*
X86162500Y30650000D03*
X86162500Y30150000D03*
X86162500Y29650000D03*
X86162500Y29150000D03*
X86162500Y28650000D03*
X86162500Y28150000D03*
X86162500Y27650000D03*
X86162500Y27150000D03*
X86162500Y26650000D03*
X86162500Y26150000D03*
X86162500Y25650000D03*
%TD*%
D39*
%TO.C,C2*%
X75295000Y23025000D03*
X73395000Y23025000D03*
%TD*%
D34*
%TO.C,IC8*%
X233069999Y25112500D03*
X233569999Y25112500D03*
X234069999Y25112500D03*
X234569999Y25112500D03*
X235069999Y25112500D03*
X235569999Y25112500D03*
X236069999Y25112500D03*
X236569999Y25112500D03*
X237069999Y25112500D03*
X237569999Y25112500D03*
X238069999Y25112500D03*
X238569999Y25112500D03*
D35*
X239982499Y26525000D03*
X239982499Y27025000D03*
X239982499Y27525000D03*
X239982499Y28025000D03*
X239982499Y28525000D03*
X239982499Y29025000D03*
X239982499Y29525000D03*
X239982499Y30025000D03*
X239982499Y30525000D03*
X239982499Y31025000D03*
X239982499Y31525000D03*
X239982499Y32025000D03*
D34*
X238569999Y33437500D03*
X238069999Y33437500D03*
X237569999Y33437500D03*
X237069999Y33437500D03*
X236569999Y33437500D03*
X236069999Y33437500D03*
X235569999Y33437500D03*
X235069999Y33437500D03*
X234569999Y33437500D03*
X234069999Y33437500D03*
X233569999Y33437500D03*
X233069999Y33437500D03*
D35*
X231657499Y32025000D03*
X231657499Y31525000D03*
X231657499Y31025000D03*
X231657499Y30525000D03*
X231657499Y30025000D03*
X231657499Y29525000D03*
X231657499Y29025000D03*
X231657499Y28525000D03*
X231657499Y28025000D03*
X231657499Y27525000D03*
X231657499Y27025000D03*
X231657499Y26525000D03*
%TD*%
D15*
%TO.C,R24*%
X249025000Y18775000D03*
X249025000Y17125000D03*
%TD*%
D27*
%TO.C,R114*%
X185600000Y50737500D03*
X185600000Y44812500D03*
%TD*%
D15*
%TO.C,R102*%
X206355000Y37675000D03*
X206355000Y36025000D03*
%TD*%
%TO.C,R66*%
X143742499Y20250000D03*
X143742499Y18600000D03*
%TD*%
D28*
%TO.C,CT1-8*%
X209995167Y46775000D03*
D29*
X207475167Y47624892D03*
D30*
X211715166Y53924998D03*
D28*
X209195166Y54674999D03*
D30*
X211715166Y49225000D03*
%TD*%
D28*
%TO.C,CT2-1*%
X76368461Y9374998D03*
D29*
X78888461Y8525106D03*
D30*
X74648462Y2225000D03*
D28*
X77168462Y1474999D03*
D30*
X74648462Y6924998D03*
%TD*%
D13*
%TO.C,C13*%
X66975000Y19525000D03*
X66975000Y21075000D03*
%TD*%
D15*
%TO.C,R73*%
X159167500Y37150000D03*
X159167500Y35500000D03*
%TD*%
%TO.C,R34*%
X89255000Y20700000D03*
X89255000Y19050000D03*
%TD*%
D22*
%TO.C,C110*%
X202805000Y19525000D03*
X204355000Y19525000D03*
%TD*%
D18*
%TO.C,R116*%
X227045000Y36375001D03*
X228695000Y36375001D03*
%TD*%
D20*
%TO.C,C9*%
X59375000Y30600000D03*
X59375000Y29050000D03*
%TD*%
%TO.C,C93*%
X179467500Y30025000D03*
X179467500Y28475000D03*
%TD*%
D31*
%TO.C,JP13*%
X201575000Y2650000D03*
D32*
X202875000Y2650000D03*
%TD*%
D46*
%TO.C,C16*%
X265500000Y22900000D03*
X265500000Y17300000D03*
%TD*%
D15*
%TO.C,R94*%
X185517499Y20550000D03*
X185517499Y18900000D03*
%TD*%
D23*
%TO.C,Y2*%
X98725000Y29499999D03*
X98725000Y31699999D03*
X97025000Y31699999D03*
X97025000Y29499999D03*
%TD*%
D20*
%TO.C,C12*%
X62275000Y21075000D03*
X62275000Y19525000D03*
%TD*%
D31*
%TO.C,JP14*%
X234825000Y3000000D03*
D32*
X236125000Y3000000D03*
%TD*%
D15*
%TO.C,R124*%
X234749999Y21575000D03*
X234749999Y19925000D03*
%TD*%
D13*
%TO.C,C97*%
X187067499Y18950000D03*
X187067499Y20500000D03*
%TD*%
D28*
%TO.C,CT2-8*%
X226631530Y46775000D03*
D29*
X224111530Y47624892D03*
D30*
X228351529Y53924998D03*
D28*
X225831529Y54674999D03*
D30*
X228351529Y49225000D03*
%TD*%
D20*
%TO.C,C108*%
X204055000Y30675000D03*
X204055000Y29125000D03*
%TD*%
D14*
%TO.C,C28*%
X98750001Y26000000D03*
X97200001Y26000000D03*
%TD*%
D16*
%TO.C,R8*%
X59725000Y21050000D03*
X58075000Y21050000D03*
%TD*%
D36*
%TO.C,CF5*%
X170687500Y33612500D03*
X170687500Y35187500D03*
%TD*%
D19*
%TO.C,C62*%
X129342500Y30100000D03*
X129342500Y28200000D03*
%TD*%
D15*
%TO.C,R64*%
X137242499Y20250000D03*
X137242499Y18600000D03*
%TD*%
D22*
%TO.C,C7*%
X57720000Y32775000D03*
X59270000Y32775000D03*
%TD*%
D14*
%TO.C,C119*%
X229045000Y27750000D03*
X227495000Y27750000D03*
%TD*%
D34*
%TO.C,IC1*%
X63745000Y24662500D03*
X64245000Y24662500D03*
X64745000Y24662500D03*
X65245000Y24662500D03*
X65745000Y24662500D03*
X66245000Y24662500D03*
X66745000Y24662500D03*
X67245000Y24662500D03*
X67745000Y24662500D03*
X68245000Y24662500D03*
X68745000Y24662500D03*
X69245000Y24662500D03*
D35*
X70657500Y26075000D03*
X70657500Y26575000D03*
X70657500Y27075000D03*
X70657500Y27575000D03*
X70657500Y28075000D03*
X70657500Y28575000D03*
X70657500Y29075000D03*
X70657500Y29575000D03*
X70657500Y30075000D03*
X70657500Y30575000D03*
X70657500Y31075000D03*
X70657500Y31575000D03*
D34*
X69245000Y32987500D03*
X68745000Y32987500D03*
X68245000Y32987500D03*
X67745000Y32987500D03*
X67245000Y32987500D03*
X66745000Y32987500D03*
X66245000Y32987500D03*
X65745000Y32987500D03*
X65245000Y32987500D03*
X64745000Y32987500D03*
X64245000Y32987500D03*
X63745000Y32987500D03*
D35*
X62332500Y31575000D03*
X62332500Y31075000D03*
X62332500Y30575000D03*
X62332500Y30075000D03*
X62332500Y29575000D03*
X62332500Y29075000D03*
X62332500Y28575000D03*
X62332500Y28075000D03*
X62332500Y27575000D03*
X62332500Y27075000D03*
X62332500Y26575000D03*
X62332500Y26075000D03*
%TD*%
D22*
%TO.C,C106*%
X202400000Y32850001D03*
X203950000Y32850001D03*
%TD*%
D14*
%TO.C,C94*%
X179817500Y23575000D03*
X178267500Y23575000D03*
%TD*%
D22*
%TO.C,C125*%
X227450000Y19900000D03*
X229000000Y19900000D03*
%TD*%
D15*
%TO.C,R63*%
X135692500Y20250000D03*
X135692500Y18600000D03*
%TD*%
%TO.C,R96*%
X192017499Y20550000D03*
X192017499Y18900000D03*
%TD*%
M02*
