%TF.GenerationSoftware,KiCad,Pcbnew,(7.0.0)*%
%TF.CreationDate,2023-05-02T23:46:26+03:00*%
%TF.ProjectId,24_channel_esp32_energy_meter,32345f63-6861-46e6-9e65-6c5f65737033,rev?*%
%TF.SameCoordinates,PX5ff2fd0PYa4fc540*%
%TF.FileFunction,Soldermask,Bot*%
%TF.FilePolarity,Negative*%
%FSLAX46Y46*%
G04 Gerber Fmt 4.6, Leading zero omitted, Abs format (unit mm)*
G04 Created by KiCad (PCBNEW (7.0.0)) date 2023-05-02 23:46:26*
%MOMM*%
%LPD*%
G01*
G04 APERTURE LIST*
%ADD10C,3.000000*%
%ADD11R,1.700000X1.700000*%
%ADD12O,1.700000X1.700000*%
%ADD13C,0.800000*%
%ADD14C,6.400000*%
%ADD15O,2.000000X1.500000*%
%ADD16R,1.400000X2.000000*%
%ADD17O,1.500000X2.000000*%
%ADD18C,2.000000*%
G04 APERTURE END LIST*
D10*
%TO.C,U1*%
X2625000Y15820000D03*
X49575000Y15820000D03*
X2625000Y40330000D03*
X49575000Y40330000D03*
%TD*%
D11*
%TO.C,J3*%
X46144999Y40799999D03*
D12*
X43604999Y40799999D03*
X41064999Y40799999D03*
X38524999Y40799999D03*
X35984999Y40799999D03*
X33444999Y40799999D03*
X30904999Y40799999D03*
X28364999Y40799999D03*
X25824999Y40799999D03*
X23284999Y40799999D03*
X20744999Y40799999D03*
X18204999Y40799999D03*
X15664999Y40799999D03*
X13124999Y40799999D03*
X10584999Y40799999D03*
%TD*%
D11*
%TO.C,J2*%
X10584999Y15399999D03*
D12*
X13124999Y15399999D03*
X15664999Y15399999D03*
X18204999Y15399999D03*
X20744999Y15399999D03*
X23284999Y15399999D03*
X25824999Y15399999D03*
X28364999Y15399999D03*
X30904999Y15399999D03*
X33444999Y15399999D03*
X35984999Y15399999D03*
X38524999Y15399999D03*
X41064999Y15399999D03*
X43604999Y15399999D03*
X46144999Y15399999D03*
%TD*%
D13*
%TO.C,H2*%
X1600000Y52025000D03*
X2302944Y53722056D03*
X2302944Y50327944D03*
X4000000Y54425000D03*
D14*
X4000000Y52025000D03*
D13*
X4000000Y49625000D03*
X5697056Y53722056D03*
X5697056Y50327944D03*
X6400000Y52025000D03*
%TD*%
D15*
%TO.C,CT2-3*%
X176186639Y9374998D03*
D16*
X178706639Y8525106D03*
D17*
X174466640Y2225000D03*
D15*
X176986640Y1474999D03*
D17*
X174466640Y6924998D03*
%TD*%
D15*
%TO.C,CT2-2*%
X126277550Y9374998D03*
D16*
X128797550Y8525106D03*
D17*
X124557551Y2225000D03*
D15*
X127077551Y1474999D03*
D17*
X124557551Y6924998D03*
%TD*%
D15*
%TO.C,CT3-7*%
X193358804Y46750000D03*
D16*
X190838804Y47599892D03*
D17*
X195078803Y53899998D03*
D15*
X192558803Y54649999D03*
D17*
X195078803Y49200000D03*
%TD*%
D15*
%TO.C,CT1-1*%
X59732098Y9249998D03*
D16*
X62252098Y8400106D03*
D17*
X58012099Y2100000D03*
D15*
X60532099Y1349999D03*
D17*
X58012099Y6799998D03*
%TD*%
D15*
%TO.C,CT3-4*%
X242732098Y9249998D03*
D16*
X245252098Y8400106D03*
D17*
X241012099Y2100000D03*
D15*
X243532099Y1349999D03*
D17*
X241012099Y6799998D03*
%TD*%
D15*
%TO.C,CT2-4*%
X226095728Y9349998D03*
D16*
X228615728Y8500106D03*
D17*
X224375729Y2200000D03*
D15*
X226895729Y1449999D03*
D17*
X224375729Y6899998D03*
%TD*%
D15*
%TO.C,CT1-7*%
X160086078Y46700000D03*
D16*
X157566078Y47549892D03*
D17*
X161806077Y53849998D03*
D15*
X159286077Y54599999D03*
D17*
X161806077Y49150000D03*
%TD*%
D15*
%TO.C,CT1-4*%
X209459365Y8949998D03*
D16*
X211979365Y8100106D03*
D17*
X207739366Y1800000D03*
D15*
X210259366Y1049999D03*
D17*
X207739366Y6499998D03*
%TD*%
D15*
%TO.C,CT3-1*%
X93004824Y9374998D03*
D16*
X95524824Y8525106D03*
D17*
X91284825Y2225000D03*
D15*
X93804825Y1474999D03*
D17*
X91284825Y6924998D03*
%TD*%
D13*
%TO.C,H1*%
X1600000Y4025000D03*
X2302944Y5722056D03*
X2302944Y2327944D03*
X4000000Y6425000D03*
D14*
X4000000Y4025000D03*
D13*
X4000000Y1625000D03*
X5697056Y5722056D03*
X5697056Y2327944D03*
X6400000Y4025000D03*
%TD*%
D15*
%TO.C,CT2-7*%
X176722441Y46700000D03*
D16*
X174202441Y47549892D03*
D17*
X178442440Y53849998D03*
D15*
X175922440Y54599999D03*
D17*
X178442440Y49150000D03*
%TD*%
D15*
%TO.C,CT1-6*%
X110176989Y46750000D03*
D16*
X107656989Y47599892D03*
D17*
X111896988Y53899998D03*
D15*
X109376988Y54649999D03*
D17*
X111896988Y49200000D03*
%TD*%
D15*
%TO.C,CT1-5*%
X60267900Y46750000D03*
D16*
X57747900Y47599892D03*
D17*
X61987899Y53899998D03*
D15*
X59467899Y54649999D03*
D17*
X61987899Y49200000D03*
%TD*%
D13*
%TO.C,H3*%
X263600000Y4000000D03*
X264302944Y5697056D03*
X264302944Y2302944D03*
X266000000Y6400000D03*
D14*
X266000000Y4000000D03*
D13*
X266000000Y1600000D03*
X267697056Y5697056D03*
X267697056Y2302944D03*
X268400000Y4000000D03*
%TD*%
D15*
%TO.C,CT3-5*%
X93540626Y46750000D03*
D16*
X91020626Y47599892D03*
D17*
X95260625Y53899998D03*
D15*
X92740625Y54649999D03*
D17*
X95260625Y49200000D03*
%TD*%
D15*
%TO.C,CT3-2*%
X142913913Y9374998D03*
D16*
X145433913Y8525106D03*
D17*
X141193914Y2225000D03*
D15*
X143713914Y1474999D03*
D17*
X141193914Y6924998D03*
%TD*%
D13*
%TO.C,H4*%
X263600000Y52000000D03*
X264302944Y53697056D03*
X264302944Y50302944D03*
X266000000Y54400000D03*
D14*
X266000000Y52000000D03*
D13*
X266000000Y49600000D03*
X267697056Y53697056D03*
X267697056Y50302944D03*
X268400000Y52000000D03*
%TD*%
D17*
%TO.C,J1*%
X264174999Y40699999D03*
D18*
X259775000Y40700000D03*
%TD*%
D15*
%TO.C,CT2-6*%
X126813352Y46700000D03*
D16*
X124293352Y47549892D03*
D17*
X128533351Y53849998D03*
D15*
X126013351Y54599999D03*
D17*
X128533351Y49150000D03*
%TD*%
D15*
%TO.C,CT3-6*%
X143449715Y46650000D03*
D16*
X140929715Y47499892D03*
D17*
X145169714Y53799998D03*
D15*
X142649714Y54549999D03*
D17*
X145169714Y49100000D03*
%TD*%
D15*
%TO.C,CT2-5*%
X76904263Y46650000D03*
D16*
X74384263Y47499892D03*
D17*
X78624262Y53799998D03*
D15*
X76104262Y54549999D03*
D17*
X78624262Y49100000D03*
%TD*%
D15*
%TO.C,CT1-2*%
X109641187Y9374998D03*
D16*
X112161187Y8525106D03*
D17*
X107921188Y2225000D03*
D15*
X110441188Y1474999D03*
D17*
X107921188Y6924998D03*
%TD*%
D15*
%TO.C,CT1-3*%
X159550276Y9374998D03*
D16*
X162070276Y8525106D03*
D17*
X157830277Y2225000D03*
D15*
X160350277Y1474999D03*
D17*
X157830277Y6924998D03*
%TD*%
D15*
%TO.C,CT3-8*%
X243267900Y46750000D03*
D16*
X240747900Y47599892D03*
D17*
X244987899Y53899998D03*
D15*
X242467899Y54649999D03*
D17*
X244987899Y49200000D03*
%TD*%
D15*
%TO.C,CT3-3*%
X192823002Y9374998D03*
D16*
X195343002Y8525106D03*
D17*
X191103003Y2225000D03*
D15*
X193623003Y1474999D03*
D17*
X191103003Y6924998D03*
%TD*%
D15*
%TO.C,CT1-8*%
X209995167Y46775000D03*
D16*
X207475167Y47624892D03*
D17*
X211715166Y53924998D03*
D15*
X209195166Y54674999D03*
D17*
X211715166Y49225000D03*
%TD*%
D15*
%TO.C,CT2-1*%
X76368461Y9374998D03*
D16*
X78888461Y8525106D03*
D17*
X74648462Y2225000D03*
D15*
X77168462Y1474999D03*
D17*
X74648462Y6924998D03*
%TD*%
D15*
%TO.C,CT2-8*%
X226631530Y46775000D03*
D16*
X224111530Y47624892D03*
D17*
X228351529Y53924998D03*
D15*
X225831529Y54674999D03*
D17*
X228351529Y49225000D03*
%TD*%
M02*
