M48
; DRILL file {KiCad (7.0.0)} date Tue May  2 23:46:44 2023
; FORMAT={-:-/ absolute / metric / decimal}
; #@! TF.CreationDate,2023-05-02T23:46:44+03:00
; #@! TF.GenerationSoftware,Kicad,Pcbnew,(7.0.0)
; #@! TF.FileFunction,Plated,1,4,PTH
FMAT,2
METRIC
; #@! TA.AperFunction,Plated,PTH,ViaDrill
T1C0.400
; #@! TA.AperFunction,Plated,PTH,ViaDrill
T2C0.500
; #@! TA.AperFunction,Plated,PTH,ComponentDrill
T3C0.500
; #@! TA.AperFunction,Plated,PTH,ViaDrill
T4C0.700
; #@! TA.AperFunction,Plated,PTH,ComponentDrill
T5C0.750
; #@! TA.AperFunction,Plated,PTH,ComponentDrill
T6C1.000
; #@! TA.AperFunction,Plated,PTH,ComponentDrill
T7C3.200
%
G90
G05
T1
X5.915Y46.225
X5.915Y44.525
X10.39Y49.575
X13.015Y51.225
X14.715Y46.25
X15.865Y50.95
X18.39Y47.075
X20.565Y52.375
X22.265Y47.525
X22.415Y48.725
X24.39Y22.5
X24.415Y44.35
X25.615Y48.075
X26.24Y50.95
X26.536Y44.903
X27.29Y44.325
X27.29Y25.325
X27.731Y37.841
X28.165Y23.8
X28.29Y47.05
X28.44Y51.6
X29.09Y26.625
X29.315Y49.3
X29.39Y44.95
X29.59Y47.725
X30.39Y44.4
X30.465Y42.8
X30.665Y49.3
X31.165Y27.85
X31.574Y48.339
X31.915Y38.2
X32.29Y19.175
X32.44Y27.125
X32.715Y30.775
X33.065Y52.45
X33.465Y35.675
X33.84Y29.9
X35.215Y35.775
X35.465Y33.475
X36.265Y29.125
X37.64Y47.3
X38.39Y49.65
X38.565Y43.45
X40.84Y48.35
X40.94Y47.05
X41.29Y43.3
X41.365Y50.95
X42.04Y39.0
X42.177Y48.438
X43.215Y38.825
X43.99Y48.875
X45.49Y52.425
X46.79Y47.675
X51.265Y34.45
X52.39Y35.3
X52.815Y32.825
X53.04Y42.425
X53.165Y36.3
X54.29Y36.0
X54.415Y41.95
X54.415Y38.575
X56.325Y30.975
X56.675Y34.3
X56.775Y32.8
X57.2Y25.755
X57.2Y24.15
X57.2Y19.45
X59.375Y31.5
X60.5Y35.3
X60.675Y37.65
X60.7Y26.9
X61.6Y34.8
X62.125Y24.662
X62.275Y18.6
X62.7Y34.6
X63.745Y31.505
X63.875Y26.9
X64.25Y26.075
X65.25Y34.525
X65.551Y31.224
X66.4Y34.45
X66.75Y31.4
X66.975Y18.6
X67.85Y34.425
X68.85Y18.575
X69.4Y29.075
X70.075Y24.675
X72.127Y29.065
X73.475Y18.525
X75.925Y34.05
X75.95Y24.825
X76.025Y32.125
X76.115Y26.5
X76.325Y23.025
X80.155Y30.55
X80.505Y33.875
X80.605Y32.375
X81.03Y25.33
X81.03Y23.725
X81.03Y19.025
X83.205Y31.075
X84.475Y34.775
X84.53Y26.475
X85.5Y34.275
X85.955Y24.237
X86.105Y18.175
X87.0Y34.4
X87.6Y31.1
X87.705Y26.475
X88.08Y25.65
X88.64Y53.7
X88.94Y47.825
X89.08Y34.1
X89.55Y30.85
X89.9Y36.975
X90.175Y30.135
X90.805Y18.175
X91.04Y29.575
X91.965Y28.925
X92.68Y18.15
X93.23Y28.65
X93.515Y44.2
X93.905Y24.25
X95.957Y28.64
X97.305Y18.1
X97.615Y43.025
X99.755Y33.625
X99.78Y24.4
X99.855Y31.7
X100.155Y22.6
X100.565Y28.35
X100.965Y46.7
X104.18Y30.962
X104.53Y34.288
X104.63Y32.788
X104.965Y23.75
X105.015Y25.976
X105.055Y19.438
X106.225Y48.625
X107.23Y31.487
X108.45Y35.2
X108.555Y26.887
X109.265Y18.7
X109.475Y34.675
X109.98Y24.65
X110.575Y34.625
X111.615Y31.675
X111.73Y26.887
X111.74Y16.925
X112.69Y26.15
X113.105Y34.512
X113.29Y16.975
X113.515Y49.725
X113.84Y31.35
X113.875Y37.6
X114.044Y34.374
X114.29Y30.45
X114.79Y29.575
X114.83Y18.587
X115.35Y37.4
X116.705Y18.562
X117.181Y28.409
X117.93Y24.662
X118.265Y17.975
X119.865Y18.025
X119.982Y29.052
X121.33Y18.512
X121.765Y51.374
X123.78Y34.038
X123.805Y24.812
X123.815Y28.774
X123.88Y32.112
X124.18Y23.012
X125.59Y51.475
X126.894Y49.975
X127.04Y44.725
X128.142Y30.1
X128.493Y33.425
X128.593Y31.925
X129.017Y24.88
X129.017Y23.275
X129.017Y18.575
X130.875Y47.275
X131.192Y30.625
X132.4Y34.425
X132.45Y36.75
X132.517Y26.025
X133.45Y33.875
X133.942Y23.787
X134.093Y17.725
X134.525Y33.6
X134.89Y31.875
X135.692Y26.025
X135.715Y17.2
X136.067Y25.2
X137.067Y33.65
X137.265Y17.35
X137.615Y30.583
X137.957Y33.981
X138.57Y34.706
X138.792Y17.725
X139.69Y33.8
X140.667Y17.7
X141.218Y28.2
X141.565Y39.95
X141.64Y40.9
X141.892Y23.8
X142.215Y17.625
X142.99Y37.65
X143.09Y35.925
X143.265Y34.775
X143.74Y17.65
X143.944Y28.19
X144.465Y39.975
X144.79Y37.825
X144.84Y40.975
X145.292Y17.65
X147.065Y20.825
X147.743Y33.175
X147.767Y23.95
X147.843Y31.25
X147.915Y25.15
X150.015Y39.175
X150.64Y38.25
X151.615Y41.45
X151.625Y37.4
X152.267Y30.525
X152.34Y42.425
X152.49Y46.95
X152.618Y33.85
X152.718Y32.35
X153.142Y25.305
X153.142Y23.7
X153.142Y19.0
X155.317Y31.05
X156.525Y34.8
X156.642Y26.45
X157.215Y19.075
X157.575Y34.275
X158.067Y24.212
X158.825Y34.325
X159.69Y31.15
X159.817Y26.45
X160.192Y25.625
X161.192Y34.075
X161.89Y37.15
X161.915Y31.05
X162.09Y29.925
X162.141Y34.024
X162.39Y28.9
X162.663Y37.702
X162.917Y18.15
X163.45Y36.8
X164.792Y18.125
X165.343Y28.625
X166.017Y24.225
X168.069Y28.615
X168.865Y9.7
X169.417Y18.075
X171.24Y21.225
X171.64Y33.612
X171.756Y30.623
X171.892Y24.375
X171.893Y26.025
X172.09Y44.85
X172.315Y3.1
X173.2Y40.125
X175.565Y40.05
X176.417Y30.4
X176.767Y33.725
X176.867Y32.225
X177.04Y39.475
X177.292Y25.18
X177.292Y23.575
X177.292Y18.875
X178.74Y43.875
X179.468Y30.925
X180.65Y34.7
X180.792Y26.325
X181.365Y18.95
X181.625Y34.125
X182.218Y24.087
X182.875Y34.025
X183.815Y31.175
X183.968Y26.325
X184.343Y25.5
X185.343Y33.95
X185.815Y30.4
X185.875Y37.025
X185.915Y29.325
X185.965Y27.875
X186.44Y34.0
X186.715Y39.075
X187.067Y18.025
X187.94Y37.975
X188.34Y3.025
X188.69Y44.875
X188.915Y46.15
X188.942Y18.0
X189.453Y8.575
X189.492Y28.5
X190.167Y24.1
X192.219Y28.49
X193.567Y17.95
X196.017Y33.475
X196.042Y24.25
X196.09Y25.875
X196.117Y31.55
X196.417Y22.45
X201.005Y31.05
X201.355Y34.375
X201.455Y32.875
X201.88Y25.83
X201.88Y24.225
X201.88Y19.525
X204.015Y43.4
X204.055Y31.575
X205.125Y35.825
X205.38Y26.975
X206.075Y34.775
X206.805Y24.737
X206.955Y18.675
X207.225Y34.35
X208.44Y31.675
X208.555Y26.975
X208.93Y26.15
X209.93Y34.6
X210.415Y29.825
X210.415Y28.675
X210.44Y31.075
X210.54Y38.525
X211.065Y34.4
X211.655Y18.675
X213.53Y18.65
X214.08Y29.15
X214.755Y24.75
X216.807Y29.14
X218.15Y43.7
X218.155Y18.6
X219.375Y39.95
X220.0Y38.2
X220.605Y34.125
X220.63Y24.9
X220.705Y32.2
X220.865Y28.0
X221.005Y23.1
X221.65Y6.9
X221.74Y3.1
X222.6Y52.275
X225.65Y31.425
X226.0Y34.75
X226.1Y33.25
X226.525Y26.205
X226.525Y24.6
X226.525Y19.9
X228.7Y31.95
X229.75Y36.3
X230.025Y27.35
X230.925Y35.125
X231.45Y25.112
X231.6Y19.05
X232.15Y35.15
X233.065Y32.125
X233.2Y27.35
X233.575Y26.525
X234.575Y34.975
X235.14Y31.3
X235.215Y30.275
X235.215Y29.275
X235.275Y9.39
X235.425Y38.075
X235.521Y35.053
X236.3Y19.05
X237.54Y27.325
X237.715Y28.75
X237.84Y2.925
X238.175Y19.025
X238.267Y26.575
X238.415Y28.0
X238.725Y29.525
X239.4Y25.125
X240.515Y25.35
X241.452Y29.515
X242.8Y18.975
X244.69Y27.9
X245.25Y34.5
X245.275Y25.275
X245.35Y32.575
X245.65Y23.475
X247.34Y49.2
X247.74Y40.8
X248.025Y24.25
X248.39Y29.225
X248.415Y33.075
X248.515Y36.8
X249.55Y25.75
X249.79Y32.925
X250.05Y17.125
X250.575Y22.8
X251.29Y45.975
X251.415Y39.325
X251.515Y33.05
X251.565Y50.975
X251.725Y28.975
X251.75Y30.35
X251.8Y31.825
X251.9Y14.275
X252.69Y35.625
X254.1Y19.65
X255.565Y47.475
X256.25Y24.85
X257.275Y26.825
X257.275Y25.15
X257.89Y37.625
T2
X259.09Y12.075
X259.115Y8.65
X261.64Y10.425
X263.9Y17.3
X265.5Y14.8
X267.1Y17.3
T3
X1.6Y52.025
X1.6Y4.025
X2.303Y53.722
X2.303Y50.328
X2.303Y5.722
X2.303Y2.328
X4.0Y54.425
X4.0Y49.625
X4.0Y6.425
X4.0Y1.625
X5.697Y53.722
X5.697Y50.328
X5.697Y5.722
X5.697Y2.328
X6.4Y52.025
X6.4Y4.025
X263.6Y52.0
X263.6Y4.0
X264.303Y53.697
X264.303Y50.303
X264.303Y5.697
X264.303Y2.303
X266.0Y54.4
X266.0Y49.6
X266.0Y6.4
X266.0Y1.6
X267.697Y53.697
X267.697Y50.303
X267.697Y5.697
X267.697Y2.303
X268.4Y52.0
X268.4Y4.0
T4
X264.46Y28.45
T6
X10.585Y40.8
X10.585Y15.4
X13.125Y40.8
X13.125Y15.4
X15.665Y40.8
X15.665Y15.4
X18.205Y40.8
X18.205Y15.4
X20.745Y40.8
X20.745Y15.4
X23.285Y40.8
X23.285Y15.4
X25.825Y40.8
X25.825Y15.4
X28.365Y40.8
X28.365Y15.4
X30.905Y40.8
X30.905Y15.4
X33.445Y40.8
X33.445Y15.4
X35.985Y40.8
X35.985Y15.4
X38.525Y40.8
X38.525Y15.4
X41.065Y40.8
X41.065Y15.4
X43.605Y40.8
X43.605Y15.4
X46.145Y40.8
X46.145Y15.4
T7
X4.0Y52.025
X4.0Y4.025
X266.0Y52.0
X266.0Y4.0
T5
G00X57.748Y47.275
M15
G01X57.748Y47.925
M16
G05
G00X58.012Y7.125
M15
G01X58.012Y6.475
M16
G05
G00X58.012Y2.425
M15
G01X58.012Y1.775
M16
G05
G00X59.143Y54.65
M15
G01X59.793Y54.65
M16
G05
G00X60.057Y9.25
M15
G01X59.407Y9.25
M16
G05
G00X59.943Y46.75
M15
G01X60.593Y46.75
M16
G05
G00X60.857Y1.35
M15
G01X60.207Y1.35
M16
G05
G00X61.988Y53.575
M15
G01X61.988Y54.225
M16
G05
G00X61.988Y48.875
M15
G01X61.988Y49.525
M16
G05
G00X62.252Y8.725
M15
G01X62.252Y8.075
M16
G05
G00X74.384Y47.175
M15
G01X74.384Y47.825
M16
G05
G00X74.648Y7.25
M15
G01X74.648Y6.6
M16
G05
G00X74.648Y2.55
M15
G01X74.648Y1.9
M16
G05
G00X75.779Y54.55
M15
G01X76.429Y54.55
M16
G05
G00X76.693Y9.375
M15
G01X76.043Y9.375
M16
G05
G00X76.579Y46.65
M15
G01X77.229Y46.65
M16
G05
G00X77.493Y1.475
M15
G01X76.843Y1.475
M16
G05
G00X78.624Y53.475
M15
G01X78.624Y54.125
M16
G05
G00X78.624Y48.775
M15
G01X78.624Y49.425
M16
G05
G00X78.888Y8.85
M15
G01X78.888Y8.2
M16
G05
G00X91.021Y47.275
M15
G01X91.021Y47.925
M16
G05
G00X91.285Y7.25
M15
G01X91.285Y6.6
M16
G05
G00X91.285Y2.55
M15
G01X91.285Y1.9
M16
G05
G00X92.416Y54.65
M15
G01X93.066Y54.65
M16
G05
G00X93.33Y9.375
M15
G01X92.68Y9.375
M16
G05
G00X93.216Y46.75
M15
G01X93.866Y46.75
M16
G05
G00X94.13Y1.475
M15
G01X93.48Y1.475
M16
G05
G00X95.261Y53.575
M15
G01X95.261Y54.225
M16
G05
G00X95.261Y48.875
M15
G01X95.261Y49.525
M16
G05
G00X95.525Y8.85
M15
G01X95.525Y8.2
M16
G05
G00X107.657Y47.275
M15
G01X107.657Y47.925
M16
G05
G00X107.921Y7.25
M15
G01X107.921Y6.6
M16
G05
G00X107.921Y2.55
M15
G01X107.921Y1.9
M16
G05
G00X109.052Y54.65
M15
G01X109.702Y54.65
M16
G05
G00X109.966Y9.375
M15
G01X109.316Y9.375
M16
G05
G00X109.852Y46.75
M15
G01X110.502Y46.75
M16
G05
G00X110.766Y1.475
M15
G01X110.116Y1.475
M16
G05
G00X111.897Y53.575
M15
G01X111.897Y54.225
M16
G05
G00X111.897Y48.875
M15
G01X111.897Y49.525
M16
G05
G00X112.161Y8.85
M15
G01X112.161Y8.2
M16
G05
G00X124.293Y47.225
M15
G01X124.293Y47.875
M16
G05
G00X124.558Y7.25
M15
G01X124.558Y6.6
M16
G05
G00X124.558Y2.55
M15
G01X124.558Y1.9
M16
G05
G00X125.688Y54.6
M15
G01X126.338Y54.6
M16
G05
G00X126.603Y9.375
M15
G01X125.953Y9.375
M16
G05
G00X126.488Y46.7
M15
G01X127.138Y46.7
M16
G05
G00X127.403Y1.475
M15
G01X126.753Y1.475
M16
G05
G00X128.533Y53.525
M15
G01X128.533Y54.175
M16
G05
G00X128.533Y48.825
M15
G01X128.533Y49.475
M16
G05
G00X128.798Y8.85
M15
G01X128.798Y8.2
M16
G05
G00X140.93Y47.175
M15
G01X140.93Y47.825
M16
G05
G00X141.194Y7.25
M15
G01X141.194Y6.6
M16
G05
G00X141.194Y2.55
M15
G01X141.194Y1.9
M16
G05
G00X142.325Y54.55
M15
G01X142.975Y54.55
M16
G05
G00X143.239Y9.375
M15
G01X142.589Y9.375
M16
G05
G00X143.125Y46.65
M15
G01X143.775Y46.65
M16
G05
G00X144.039Y1.475
M15
G01X143.389Y1.475
M16
G05
G00X145.17Y53.475
M15
G01X145.17Y54.125
M16
G05
G00X145.17Y48.775
M15
G01X145.17Y49.425
M16
G05
G00X145.434Y8.85
M15
G01X145.434Y8.2
M16
G05
G00X157.566Y47.225
M15
G01X157.566Y47.875
M16
G05
G00X157.83Y7.25
M15
G01X157.83Y6.6
M16
G05
G00X157.83Y2.55
M15
G01X157.83Y1.9
M16
G05
G00X158.961Y54.6
M15
G01X159.611Y54.6
M16
G05
G00X159.875Y9.375
M15
G01X159.225Y9.375
M16
G05
G00X159.761Y46.7
M15
G01X160.411Y46.7
M16
G05
G00X160.675Y1.475
M15
G01X160.025Y1.475
M16
G05
G00X161.806Y53.525
M15
G01X161.806Y54.175
M16
G05
G00X161.806Y48.825
M15
G01X161.806Y49.475
M16
G05
G00X162.07Y8.85
M15
G01X162.07Y8.2
M16
G05
G00X174.202Y47.225
M15
G01X174.202Y47.875
M16
G05
G00X174.467Y7.25
M15
G01X174.467Y6.6
M16
G05
G00X174.467Y2.55
M15
G01X174.467Y1.9
M16
G05
G00X175.597Y54.6
M15
G01X176.247Y54.6
M16
G05
G00X176.512Y9.375
M15
G01X175.862Y9.375
M16
G05
G00X176.397Y46.7
M15
G01X177.047Y46.7
M16
G05
G00X177.312Y1.475
M15
G01X176.662Y1.475
M16
G05
G00X178.442Y53.525
M15
G01X178.442Y54.175
M16
G05
G00X178.442Y48.825
M15
G01X178.442Y49.475
M16
G05
G00X178.707Y8.85
M15
G01X178.707Y8.2
M16
G05
G00X190.839Y47.275
M15
G01X190.839Y47.925
M16
G05
G00X191.103Y7.25
M15
G01X191.103Y6.6
M16
G05
G00X191.103Y2.55
M15
G01X191.103Y1.9
M16
G05
G00X192.234Y54.65
M15
G01X192.884Y54.65
M16
G05
G00X193.148Y9.375
M15
G01X192.498Y9.375
M16
G05
G00X193.034Y46.75
M15
G01X193.684Y46.75
M16
G05
G00X193.948Y1.475
M15
G01X193.298Y1.475
M16
G05
G00X195.079Y53.575
M15
G01X195.079Y54.225
M16
G05
G00X195.079Y48.875
M15
G01X195.079Y49.525
M16
G05
G00X195.343Y8.85
M15
G01X195.343Y8.2
M16
G05
G00X207.475Y47.3
M15
G01X207.475Y47.95
M16
G05
G00X207.739Y6.825
M15
G01X207.739Y6.175
M16
G05
G00X207.739Y2.125
M15
G01X207.739Y1.475
M16
G05
G00X208.87Y54.675
M15
G01X209.52Y54.675
M16
G05
G00X209.784Y8.95
M15
G01X209.134Y8.95
M16
G05
G00X209.67Y46.775
M15
G01X210.32Y46.775
M16
G05
G00X210.584Y1.05
M15
G01X209.934Y1.05
M16
G05
G00X211.715Y53.6
M15
G01X211.715Y54.25
M16
G05
G00X211.715Y48.9
M15
G01X211.715Y49.55
M16
G05
G00X211.979Y8.425
M15
G01X211.979Y7.775
M16
G05
G00X224.112Y47.3
M15
G01X224.112Y47.95
M16
G05
G00X224.376Y7.225
M15
G01X224.376Y6.575
M16
G05
G00X224.376Y2.525
M15
G01X224.376Y1.875
M16
G05
G00X225.507Y54.675
M15
G01X226.157Y54.675
M16
G05
G00X226.421Y9.35
M15
G01X225.771Y9.35
M16
G05
G00X226.307Y46.775
M15
G01X226.957Y46.775
M16
G05
G00X227.221Y1.45
M15
G01X226.571Y1.45
M16
G05
G00X228.352Y53.6
M15
G01X228.352Y54.25
M16
G05
G00X228.352Y48.9
M15
G01X228.352Y49.55
M16
G05
G00X228.616Y8.825
M15
G01X228.616Y8.175
M16
G05
G00X240.748Y47.275
M15
G01X240.748Y47.925
M16
G05
G00X241.012Y7.125
M15
G01X241.012Y6.475
M16
G05
G00X241.012Y2.425
M15
G01X241.012Y1.775
M16
G05
G00X242.143Y54.65
M15
G01X242.793Y54.65
M16
G05
G00X243.057Y9.25
M15
G01X242.407Y9.25
M16
G05
G00X242.943Y46.75
M15
G01X243.593Y46.75
M16
G05
G00X243.857Y1.35
M15
G01X243.207Y1.35
M16
G05
G00X244.988Y53.575
M15
G01X244.988Y54.225
M16
G05
G00X244.988Y48.875
M15
G01X244.988Y49.525
M16
G05
G00X245.252Y8.725
M15
G01X245.252Y8.075
M16
G05
T0
M30
